<?xml version="1.0" encoding="UTF-8" standalone="no"?>
<svg
   xmlns:dc="http://purl.org/dc/elements/1.1/"
   xmlns:cc="http://creativecommons.org/ns#"
   xmlns:rdf="http://www.w3.org/1999/02/22-rdf-syntax-ns#"
   xmlns:svg="http://www.w3.org/2000/svg"
   xmlns="http://www.w3.org/2000/svg"
   xmlns:sodipodi="http://sodipodi.sourceforge.net/DTD/sodipodi-0.dtd"
   xmlns:inkscape="http://www.inkscape.org/namespaces/inkscape"
   width="210mm"
   height="297mm"
   viewBox="0 0 210 297"
   version="1.1"
   id="svg8"
   sodipodi:docname="globe.svg"
   inkscape:version="1.0.2-2 (e86c870879, 2021-01-15)">
  <defs
     id="defs2" />
  <sodipodi:namedview
     id="base"
     pagecolor="#ffffff"
     bordercolor="#666666"
     borderopacity="1.0"
     inkscape:pageopacity="0.0"
     inkscape:pageshadow="2"
     inkscape:zoom="1.4"
     inkscape:cx="317.16625"
     inkscape:cy="413.67682"
     inkscape:document-units="mm"
     inkscape:current-layer="layer1"
     inkscape:document-rotation="0"
     showgrid="false"
     inkscape:window-width="1920"
     inkscape:window-height="1009"
     inkscape:window-x="-8"
     inkscape:window-y="-8"
     inkscape:window-maximized="1" />
  <metadata
     id="metadata5">
    <rdf:RDF>
      <cc:Work
         rdf:about="">
        <dc:format>image/svg+xml</dc:format>
        <dc:type
           rdf:resource="http://purl.org/dc/dcmitype/StillImage" />
        <dc:title></dc:title>
      </cc:Work>
    </rdf:RDF>
  </metadata>
  <g
     inkscape:label="レイヤー 1"
     inkscape:groupmode="layer"
     id="layer1">
    <path
       fill-rule="evenodd"
       d="m 65.011905,96.875298 c -1.607344,0 -2.910417,1.303073 -2.910417,2.910416 0,1.607346 1.303073,2.910416 2.910417,2.910416 1.607344,0 2.910417,-1.30307 2.910417,-2.910416 0,-1.607343 -1.303073,-2.910416 -2.910417,-2.910416 z m -2.510102,2.778125 h 1.255448 c 0.02646,-0.80354 0.291041,-1.452563 0.553773,-1.906059 0.103187,-0.1778 0.206375,-0.326231 0.296068,-0.442648 -1.153583,0.186796 -2.043641,1.158082 -2.105289,2.348707 z m 1.262062,0.396877 h -1.251744 a 2.5148646,2.5148646 0 0 0 2.094971,2.21641 4.1534292,4.1534292 0 0 1 -0.296068,-0.44265 c -0.24818,-0.42836 -0.497682,-1.03108 -0.547159,-1.77376 z m 0.397934,0 h 1.700212 c -0.04842,0.65616 -0.269875,1.19062 -0.492654,1.57453 -0.125942,0.21696 -0.251354,0.38497 -0.345017,0.49742 l -0.01243,0.0156 -0.01244,-0.0151 a 3.6745333,3.6745333 0 0 1 -0.345016,-0.49742 c -0.222779,-0.38444 -0.4445,-0.91942 -0.492654,-1.57506 z m 1.70762,-0.396877 H 64.15439 c 0.02646,-0.716492 0.262467,-1.297517 0.500063,-1.706827 0.125941,-0.216959 0.251354,-0.384969 0.345016,-0.497417 l 0.01244,-0.01561 0.01243,0.01508 c 0.0934,0.112712 0.219075,0.280458 0.345017,0.497416 0.237595,0.409575 0.473604,0.9906 0.500062,1.707092 z m 0.390525,0.396877 c -0.04921,0.74268 -0.298979,1.3454 -0.547158,1.77376 -0.103187,0.1778 -0.206375,0.32624 -0.295804,0.44265 a 2.5148646,2.5148646 0 0 0 2.094442,-2.21641 H 66.25968 Z m 1.262063,-0.396877 h -1.255448 c -0.02646,-0.80354 -0.291042,-1.452563 -0.553773,-1.906059 -0.103187,-0.1778 -0.206375,-0.326231 -0.296069,-0.442648 1.153584,0.186796 2.043642,1.158082 2.10529,2.348707 z"
       id="path852"
       style="stroke-width:0.264583;fill:#ffffff" />
  </g>
</svg>
