<?xml version="1.0" encoding="UTF-8" standalone="no"?>
<svg
   xmlns:dc="http://purl.org/dc/elements/1.1/"
   xmlns:cc="http://creativecommons.org/ns#"
   xmlns:rdf="http://www.w3.org/1999/02/22-rdf-syntax-ns#"
   xmlns:svg="http://www.w3.org/2000/svg"
   xmlns="http://www.w3.org/2000/svg"
   xmlns:sodipodi="http://sodipodi.sourceforge.net/DTD/sodipodi-0.dtd"
   xmlns:inkscape="http://www.inkscape.org/namespaces/inkscape"
   width="210mm"
   height="297mm"
   viewBox="0 0 210 297"
   version="1.1"
   id="svg8"
   inkscape:version="1.0.2-2 (e86c870879, 2021-01-15)"
   sodipodi:docname="save.svg">
  <defs
     id="defs2" />
  <sodipodi:namedview
     id="base"
     pagecolor="#ffffff"
     bordercolor="#666666"
     borderopacity="1.0"
     inkscape:pageopacity="0.0"
     inkscape:pageshadow="2"
     inkscape:zoom="0.35"
     inkscape:cx="400"
     inkscape:cy="560"
     inkscape:document-units="mm"
     inkscape:current-layer="layer1"
     inkscape:document-rotation="0"
     showgrid="false"
     inkscape:window-width="1920"
     inkscape:window-height="1009"
     inkscape:window-x="-8"
     inkscape:window-y="-8"
     inkscape:window-maximized="1" />
  <metadata
     id="metadata5">
    <rdf:RDF>
      <cc:Work
         rdf:about="">
        <dc:format>image/svg+xml</dc:format>
        <dc:type
           rdf:resource="http://purl.org/dc/dcmitype/StillImage" />
        <dc:title></dc:title>
      </cc:Work>
    </rdf:RDF>
  </metadata>
  <g
     inkscape:label="レイヤー 1"
     inkscape:groupmode="layer"
     id="layer1">
    <g
       id="g847"
       transform="matrix(3.4142848,0,0,3.3513866,53.52204,83.003628)"
       style="stroke:#ffffff;fill:#ffffff">
      <path
         d="m 9.197,10 a 0.75,0.75 0 0 0 0,1.5 h 6.5 a 0.75,0.75 0 0 0 0,-1.5 z m -2.382,4 a 0.75,0.75 0 0 0 0,1.5 h 6.5 a 0.75,0.75 0 0 0 0,-1.5 z m -1.581,4 a 0.75,0.75 0 0 0 0,1.5 h 6.5 a 0.75,0.75 0 0 0 0,-1.5 z"
         id="path833"
         style="stroke:#ffffff;fill:#ffffff" />
      <path
         fill-rule="evenodd"
         d="m 4.125,0 h 15.75 A 4.113,4.113 0 0 1 24,4.125 c 0,1.384 -0.476,2.794 -1.128,4.16 -0.652,1.365 -1.515,2.757 -2.352,4.104 l -0.008,0.013 c -0.849,1.368 -1.669,2.691 -2.28,3.97 -0.614,1.283 -0.982,2.45 -0.982,3.503 A 2.625,2.625 0 1 0 21.333,17.692 0.75009416,0.75009416 0 0 1 22.167,16.445 4.125,4.125 0 0 1 19.875,24 H 4.5 A 4.125,4.125 0 0 1 0.375,19.875 c 0,-2.234 1.258,-4.656 2.59,-6.902 0.348,-0.586 0.702,-1.162 1.05,-1.728 0.8,-1.304 1.567,-2.553 2.144,-3.738 H 3.39 C 2.567,7.507 1.504,7.314 0.823,6.472 A 3.647,3.647 0 0 1 0,4.125 4.125,4.125 0 0 1 4.125,0 Z M 1.5,4.125 A 2.625,2.625 0 0 1 4.125,1.5 H 16.693 A 4.108,4.108 0 0 0 15.75,4.125 c 0,0.723 0.185,1.349 0.499,1.882 H 3.389 C 2.727,6.007 2.241,5.841 1.987,5.528 A 2.148,2.148 0 0 1 1.5,4.125 Z m 14.25,15.75 c 0,0.997 0.354,1.912 0.943,2.625 H 4.5 A 2.625,2.625 0 0 1 1.875,19.875 c 0,-1.766 1.025,-3.85 2.38,-6.137 C 4.569,13.209 4.901,12.67 5.235,12.126 6.188,10.576 7.162,8.99 7.812,7.507 H 18 A 0.75,0.75 0 0 0 18.417,6.134 C 17.671,5.634 17.25,4.99 17.25,4.125 A 2.625,2.625 0 0 1 19.875,1.5 2.613,2.613 0 0 1 22.5,4.125 c 0,1.057 -0.368,2.229 -0.982,3.514 -0.611,1.28 -1.431,2.605 -2.28,3.972 l -0.017,0.028 c -0.834,1.343 -1.694,2.728 -2.343,4.086 -0.652,1.364 -1.128,2.77 -1.128,4.15 z"
         id="path835"
         style="stroke:#ffffff;fill:#ffffff" />
    </g>
  </g>
</svg>
