<?xml version="1.0" encoding="UTF-8" standalone="no"?>
<svg
   xmlns:dc="http://purl.org/dc/elements/1.1/"
   xmlns:cc="http://creativecommons.org/ns#"
   xmlns:rdf="http://www.w3.org/1999/02/22-rdf-syntax-ns#"
   xmlns:svg="http://www.w3.org/2000/svg"
   xmlns="http://www.w3.org/2000/svg"
   xmlns:sodipodi="http://sodipodi.sourceforge.net/DTD/sodipodi-0.dtd"
   xmlns:inkscape="http://www.inkscape.org/namespaces/inkscape"
   width="210mm"
   height="297mm"
   viewBox="0 0 210 297"
   version="1.1"
   id="svg8"
   sodipodi:docname="unmute.svg"
   inkscape:version="1.0.2-2 (e86c870879, 2021-01-15)">
  <defs
     id="defs2" />
  <sodipodi:namedview
     id="base"
     pagecolor="#ffffff"
     bordercolor="#666666"
     borderopacity="1.0"
     inkscape:pageopacity="0.0"
     inkscape:pageshadow="2"
     inkscape:zoom="1.4"
     inkscape:cx="317.16625"
     inkscape:cy="413.67682"
     inkscape:document-units="mm"
     inkscape:current-layer="layer1"
     inkscape:document-rotation="0"
     showgrid="false"
     inkscape:window-width="1920"
     inkscape:window-height="1009"
     inkscape:window-x="-8"
     inkscape:window-y="-8"
     inkscape:window-maximized="1" />
  <metadata
     id="metadata5">
    <rdf:RDF>
      <cc:Work
         rdf:about="">
        <dc:format>image/svg+xml</dc:format>
        <dc:type
           rdf:resource="http://purl.org/dc/dcmitype/StillImage" />
        <dc:title></dc:title>
      </cc:Work>
    </rdf:RDF>
  </metadata>
  <g
     inkscape:label="レイヤー 1"
     inkscape:groupmode="layer"
     id="layer1">
    <g
       id="g850"
       transform="matrix(0.26458333,0,0,0.26458333,34.622619,95.09867)"
       style="fill:#ffffff">
      <path
         fill-rule="evenodd"
         d="M 11.553,3.064 A 0.75,0.75 0 0 1 12,3.75 v 16.5 a 0.75,0.75 0 0 1 -1.255,0.555 L 5.46,16 H 2.75 A 1.75,1.75 0 0 1 1,14.25 V 9.75 C 1,8.784 1.784,8 2.75,8 h 2.71 l 5.285,-4.805 a 0.75,0.75 0 0 1 0.808,-0.13 z M 10.5,5.445 6.255,9.305 A 0.75,0.75 0 0 1 5.75,9.5 h -3 A 0.25,0.25 0 0 0 2.5,9.75 v 4.5 c 0,0.138 0.112,0.25 0.25,0.25 h 3 a 0.75,0.75 0 0 1 0.505,0.195 l 4.245,3.86 z"
         id="path833"
         style="fill:#ffffff" />
      <path
         d="m 18.718,4.222 a 0.75,0.75 0 0 1 1.06,0 c 4.296,4.296 4.296,11.26 0,15.556 a 0.75,0.75 0 0 1 -1.06,-1.06 9.5,9.5 0 0 0 0,-13.436 0.75,0.75 0 0 1 0,-1.06 z"
         id="path835"
         style="fill:#ffffff" />
      <path
         d="m 16.243,7.757 a 0.75024029,0.75024029 0 1 0 -1.061,1.061 4.5,4.5 0 0 1 0,6.364 0.75,0.75 0 0 0 1.06,1.06 6,6 0 0 0 0,-8.485 z"
         id="path837"
         style="fill:#ffffff" />
    </g>
  </g>
</svg>
